# AST/ASF file generated using VICON BodyLanguage
# -----------------------------------------------
:version 1.10
:name VICON
:units
  mass 1.0
  length 0.45
  angle deg
:documentation
   .ast/.asf automatically generated from VICON data using
   VICON BodyBuilder and BodyLanguage model FoxedUp or BRILLIANT.MOD
:root
   order TX TY TZ RX RY RZ
   axis XYZ
   position 0 0 0  
   orientation 0 0 0 
:bonedata
  begin
     id 1 
     name lhipjoint
     direction 0.722297 -0.617336 0.311742 
     length 2.6635 
     axis 0 0 0  XYZ
  end
  begin
     id 2 
     name lfemur
     direction 0.34202 -0.939693 0  
     length 7.39349  
     axis 0 0 20  XYZ
    dof rx ry rz
    limits (-160.0 20.0)
           (-70.0 70.0)
           (-60.0 70.0)
  end
  begin
     id 3 
     name ltibia
     direction 0.34202 -0.939693 0   
     length 7.36294   
     axis 0 0 20   XYZ
    dof rx
    limits (-10.0 170.0)
  end
  begin
     id 4 
     name lfoot
     direction 0.104879 -0.288152 0.951824   
     length 2.16981   
     axis -90 7.62852e-016 20   XYZ
    dof rx rz
    limits (-45.0 90.0)
           (-70.0 20.0)
  end
  begin
     id 5 
     name ltoes
     direction 1.53586e-011 -4.21895e-011 1   
     length 1.08218   
     axis -90 7.62852e-016 20   XYZ
    dof rx
    limits (-90.0 20.0)
  end
  begin
     id 6 
     name rhipjoint
     direction -0.75102 -0.589393 0.297631   
     length 2.78977  
     axis 0 0 0  XYZ 
  end
  begin
     id 7 
     name rfemur
     direction -0.34202 -0.939693 0   
     length 7.46076   
     axis 0 0 -20   XYZ
    dof rx ry rz
    limits (-160.0 20.0)
           (-70.0 70.0)
           (-70.0 60.0)
  end
  begin
     id 8 
     name rtibia
     direction -0.34202 -0.939693 0   
     length 7.31726   
     axis 0 0 -20   XYZ
    dof rx
    limits (-10.0 170.0)
 end
 begin
     id 9 
     name rfoot
     direction -0.107991 -0.296704 0.948844   
     length 2.09388  
     axis -90 -7.62852e-016 -20   XYZ
    dof rx rz
    limits (-45.0 90.0)
           (-20.0 70.0)
  end
  begin
     id 10 
     name rtoes
     direction -1.53559e-011 -4.21911e-011 1   
     length 1.04433   
     axis -90 -7.62852e-016 -20   XYZ
    dof rx
    limits (-90.0 20.0)
  end
  begin
     id 11 
     name lowerback
     direction 0.0165164 0.98272 0.184358   
     length 1.71896   
     axis 0 0 0   XYZ
    dof rx ry rz
    limits (-20.0 45.0)
           (-30.0 30.0)
           (-30.0 30.0)
  end
  begin
     id 12 
     name upperback
     direction -0.00887249 0.992297 0.123566   
     length 1.71504   
     axis 0 0 0   XYZ
    dof rx ry rz
    limits (-20.0 45.0)
           (-30.0 30.0)
           (-30.0 30.0)
  end
  begin
     id 13 
     name thorax
     direction -0.0157026 0.998908 0.0440032   
     length 1.77022   
     axis 0 0 0   XYZ
    dof rx ry rz
    limits (-20.0 45.0)
           (-30.0 30.0)
           (-30.0 30.0)
  end
  begin
     id 14 
     name lowerneck
     direction -0.0238856 0.998137 0.0561411   
     length 1.89341   
     axis 0 0 0   XYZ
    dof rx ry rz
    limits (-20.0 45.0)
           (-30.0 30.0)
           (-30.0 30.0)
  end
  begin
     id 15 
     name upperneck
     direction 0.0276574 0.952253 -0.304056   
     length 1.86999   
     axis 0 0 0   XYZ
    dof rx ry rz
    limits (-20.0 45.0)
           (-30.0 30.0)
           (-30.0 30.0)
  end
  begin
     id 16
     name head
     direction 0.00800083 0.994258 -0.106712  
     length 1.91492  
     axis 0 0 0   XYZ
    dof rx ry rz
    limits (-20.0 45.0)
           (-30.0 30.0)
           (-30.0 30.0)
  end
  begin
     id 17 
     name lclavicle
     direction 0.97203 0.225407 0.06595  
     length 3.34889  
     axis 0 0 0   XYZ
    dof ry rz
    limits (-20.0 10.0)
           (0.0 20.0)
  end
  begin
     id 18 
     name lhumerus
     direction 1 -4.48973e-011 2.20267e-027   
     length 4.85645   
     axis 180 -30 -90   XYZ
    dof rx ry rz
    limits (-60.0 90.0)
           (-90.0 90.0)
           (-90.0 90.0)
  end
  begin
     id 19
     name lradius
     direction 1 -4.4897e-011 4.60472e-027   
     length 2.79874   
     axis 180 -30 -90   XYZ
    dof rx
    limits (-10.0 170.0)
  end
  begin
     id 20
     name lwrist
     direction 1 -4.48952e-011 1.14928e-026   
     length 1.39937   
     axis -6.29373e-015 90 90   XYZ
    dof ry
    limits (-180.0 0.0)
 end
  begin
     id 21 
     name lhand
     direction 1 -4.48967e-011 2.29886e-026   
     length 0.573398   
     axis -1.46689e-014 90 90   XYZ
    dof rx rz
    limits (-90.0 90.0)
           (-45.0 45.0)
  end
  begin
     id 22 
     name lfingers
     direction 1 -4.48955e-011 4.59726e-026   
     length 0.462289   
     axis -2.93383e-014 90 90   XYZ
    dof rx
    limits (0.0 90.0)
  end
  begin
     id 23
     name lthumb
     direction 0.707107 -6.34866e-011 0.707107   
     length 0.663757   
     axis -90 45 5.69224e-014   XYZ
    dof rx rz
    limits (-45.0 45.0)
           (-45.0 45.0)
  end
  begin
     id 24 
     name rclavicle
     direction -0.981571 0.157346 0.108443   
     length 3.35257  
     axis 0 0 0   XYZ 
    dof ry rz
    limits (-10.0 20.0)
           (-20.0 0.0)
  end
  begin
     id 25 
     name rhumerus
     direction -1 -4.48967e-011 8.58308e-029  
     length 4.67018   
     axis 180 30 90   XYZ
    dof rx ry rz
    limits (-90.0 60.0)
           (-90.0 90.0)
           (-90.0 90.0)
  end
  begin
     id 26 
     name rradius
     direction -1 -4.48958e-011 4.52548e-027   
     length 2.65534   
     axis 180 30 90   XYZ
    dof rx
    limits (-10.0 170.0)
  end
  begin
     id 27 
     name rwrist
     direction -1 -4.48977e-011 1.14952e-026   
     length 1.32767   
     axis -6.29373e-015 -90 -90   XYZ
    dof ry
    limits (-180.0 0.0)
  end
  begin
     id 28
     name rhand
     direction -1 -4.48924e-011 2.29804e-026   
     length 0.594069   
     axis -1.46689e-014 -90 -90   XYZ
    dof rx rz
    limits (-90.0 90.0)
           (-45.0 45.0)
  end
  begin
     id 29
     name rfingers
     direction -1 -4.48998e-011 4.59888e-026   
     length 0.478954   
     axis -2.93383e-014 -90 -90   XYZ
    dof rx
    limits (0.0 90.0)
  end
  begin
     id 30
     name rthumb
     direction -0.707107 -6.34933e-011 0.707107   
     length 0.687685   
     axis -90 -45 -5.69224e-014   XYZ
    dof rx rz
    limits (-45.0 45.0)
           (-45.0 45.0)
  end
:hierarchy
  begin
    root lhipjoint rhipjoint lowerback
    lhipjoint lfemur
    lfemur ltibia
    ltibia lfoot
    lfoot ltoes
    rhipjoint rfemur
    rfemur rtibia
    rtibia rfoot
    rfoot rtoes
    lowerback upperback
    upperback thorax
    thorax lowerneck lclavicle rclavicle
    lowerneck upperneck
    upperneck head
    lclavicle lhumerus
    lhumerus lradius
    lradius lwrist
    lwrist lhand lthumb
    lhand lfingers
    rclavicle rhumerus
    rhumerus rradius
    rradius rwrist
    rwrist rhand rthumb
    rhand rfingers
  end

#!OML:ASF E:\pregnant2\Project 1\Capture day 1\Session 1\pregnant2.ASF
:FULLY-SPECIFIED
:DEGREES
1430
root -3.73742 16.9037 20.6656 17.7857 -3.67883 5.53542
lowerback -13.8655 0.591129 8.16886
upperback -12.8413 0.0912044 2.03896
thorax -6.02768 -0.512918 -2.38351
lowerneck -15.4616 -0.738148 -3.12636
upperneck 35.1819 1.68635 -5.1187
head 14.8546 -0.45144 -1.30033
rclavicle 4.09496e-014 -2.54444e-014
rhumerus -121.855 32.8766 -148.918
rradius 92.6815
rwrist 31.8638
rhand -52.4578 -40.4736
rfingers 7.12502
rthumb -24.9462 -68.8653
lclavicle 4.09496e-014 -2.54444e-014
lhumerus -117.986 -32.0516 145.055
lradius 90.408
lwrist -20.1217
lhand -45.5024 38.1333
lfingers 7.12502
lthumb -18.267 67.2956
rfemur -34.4336 13.0778 5.43355
rtibia 43.242
rfoot -24.1059 -19.2501
rtoes -8.82608
lfemur -26.5343 2.99931 -27.341
ltibia 32.1446
lfoot -19.0604 11.4446
ltoes -6.44638
1431
root -3.77411 16.9055 20.6699 17.7267 -3.57463 5.23165
lowerback -13.9184 0.601287 8.03288
upperback -12.8668 0.112196 1.99515
thorax -6.02138 -0.493699 -2.35305
lowerneck -15.4573 -0.836266 -3.25164
upperneck 35.2725 1.51482 -4.92837
head 14.8896 -0.517349 -1.23051
rclavicle 4.77083e-015 -1.59028e-015
rhumerus -121.846 32.8627 -149.053
rradius 92.5246
rwrist 31.6963
rhand -52.8451 -41.5479
rfingers 7.12502
rthumb -25.3174 -69.8876
lclavicle 4.77083e-015 -1.59028e-015
lhumerus -118.032 -32.1114 145.062
lradius 90.4837
lwrist -20.0335
lhand -45.5055 38.0916
lfingers 7.12502
lthumb -18.27 67.2536
rfemur -34.2325 13.0615 5.97939
rtibia 43.0566
rfoot -23.9948 -19.2185
rtoes -8.81479
lfemur -26.5461 2.85925 -26.8251
ltibia 32.3839
lfoot -19.1852 11.646
ltoes -6.5562
1432
root -3.81106 16.9075 20.6739 17.6716 -3.46757 4.9308
lowerback -13.9708 0.607773 7.88901
upperback -12.889 0.129076 1.95212
thorax -6.01189 -0.475678 -2.31772
lowerneck -15.4527 -0.931618 -3.37519
upperneck 35.3513 1.34524 -4.73596
head 14.9196 -0.581501 -1.15937
rclavicle 1.19271e-015 -5.24792e-014
rhumerus -121.844 32.8572 -149.196
rradius 92.3682
rwrist 31.5467
rhand -53.1206 -42.3745
rfingers 7.12502
rthumb -25.5812 -70.6766
lclavicle 1.19271e-015 -5.24792e-014
lhumerus -118.079 -32.1595 145.077
lradius 90.5633
lwrist -19.9318
lhand -45.5042 38.0544
lfingers 7.12502
lthumb -18.2687 67.2165
rfemur -34.034 13.0439 6.52104
rtibia 42.8677
rfoot -23.8832 -19.1887
rtoes -8.80158
lfemur -26.5601 2.71802 -26.3117
ltibia 32.6142
lfoot -19.2986 11.8428
ltoes -6.65387
1433
root -3.84828 16.9096 20.6775 17.6179 -3.35782 4.63767
lowerback -14.0203 0.610408 7.73412
upperback -12.9083 0.142107 1.90755
thorax -6.0008 -0.458666 -2.27824
lowerneck -15.4489 -1.02679 -3.49786
upperneck 35.4215 1.17465 -4.54256
head 14.9466 -0.64556 -1.08785
rclavicle -1.19271e-014 3.33958e-014
rhumerus -121.848 32.8563 -149.341
rradius 92.2172
rwrist 31.4225
rhand -53.2653 -42.904
rfingers 7.12502
rthumb -25.7199 -71.1861
lclavicle -1.19271e-014 3.33958e-014
lhumerus -118.132 -32.2006 145.108
lradius 90.6469
lwrist -19.8164
lhand -45.5041 38.0273
lfingers 7.12502
lthumb -18.2687 67.1894
rfemur -33.8363 13.0325 7.05186
rtibia 42.6763
rfoot -23.7726 -19.1671
rtoes -8.78266
lfemur -26.572 2.57554 -25.8059
ltibia 32.832
lfoot -19.4049 12.0341
ltoes -6.75537
1434
root -3.88572 16.9118 20.6809 17.5666 -3.24503 4.35096
lowerback -14.0678 0.60798 7.56845
upperback -12.9254 0.149708 1.86378
thorax -5.98881 -0.443418 -2.23236
lowerneck -15.4455 -1.12137 -3.62172
upperneck 35.4832 1.00391 -4.34713
head 14.9704 -0.709296 -1.01501
rclavicle 1.86858e-014 1.59028e-015
rhumerus -121.865 32.8606 -149.493
rradius 92.0724
rwrist 31.3209
rhand -53.2814 -43.1542
rfingers 7.12502
rthumb -25.7353 -71.4341
lclavicle 1.86858e-014 1.59028e-015
lhumerus -118.185 -32.2295 145.146
lradius 90.7332
lwrist -19.6954
lhand -45.502 38.0046
lfingers 7.12502
lthumb -18.2667 67.1669
rfemur -33.6402 13.0157 7.5758
rtibia 42.4839
rfoot -23.6649 -19.1439
rtoes -8.75201
lfemur -26.5824 2.43112 -25.3065
ltibia 33.0382
lfoot -19.5022 12.2206
ltoes -6.85243
